# xmcd
#
# Track frame offsets: 
#        150
#        13782
#        25832
#        38687
#        51260
#        64710
#        77037
#        88902
#        101047
#        112262
#        125367
#        137817
#        155242
#        179082
#        211497
#        225282
#
# Disc length: 3227 seconds
#
# Revision: 5
# Processed by: cddbd v1.5.1PL0 Copyright (c) Steve Scherf et al.
# Submitted via: ExactAudioCopy v0.95a5
#
DISCID=e20c9910
DTITLE=Lightnin' Hopkins - The Very Best of Lightnin' Hopkins
DYEAR=2000
DGENRE=Blues
TTITLE0=Katie Mae Blues
TTITLE1=Shotgun Blues
TTITLE2=Baby Please Don't Go
TTITLE3=Automobile
TTITLE4=Give Me Central 209 (Hello Central)
TTITLE5=Coffee Blues
TTITLE6=I'm Beggin' You
TTITLE7=Contrary Mary
TTITLE8=Moanin' Blues
TTITLE9=Penitentiary Blues
TTITLE10=Fan It
TTITLE11=Conversation Blues
TTITLE12=Last Night Blues
TTITLE13=Mighty Crazy
TTITLE14=Mojo Hand
TTITLE15=Baby Don't you Tear My Clothes
EXTD=
EXTT0=
EXTT1=
EXTT2=
EXTT3=
EXTT4=
EXTT5=
EXTT6=
EXTT7=
EXTT8=
EXTT9=
EXTT10=
EXTT11=
EXTT12=
EXTT13=
EXTT14=
EXTT15=
PLAYORDER=
